<svg xmlns="http://www.w3.org/2000/svg" viewBox="0 0 533.5 544.3"><path fill="#4285f4" d="M533.5 278.4c0-18.5-1.5-36.3-4.4-53.6H272v101.5h146.9c-6.3 34.1-25.6 62.9-54.6 82.3v68.4h88.1c51.6-47.5 81.1-117.6 81.1-198.6z"/><path fill="#34a853" d="M272 544.3c73.7 0 135.6-24.5 180.8-66.6l-88.1-68.4c-24.5 16.4-55.8 26-92.7 26-71.3 0-131.8-48-153.6-112.5H28.9v70.8C74.1 478.9 166.2 544.3 272 544.3z"/><path fill="#fbbc04" d="M118.4 327.8c-10.6-31.9-10.6-66.1 0-98l-70.8-70.8C18.6 187.6 0 231.6 0 272s18.6 84.4 47.6 113l70.8-70.8z"/><path fill="#ea4335" d="M272 107.7c39.9 0 75.8 13.7 104.1 40.6l78.1-78.1C400.4 24.9 342.1 0 272 0 166.2 0 74.1 65.4 28.9 162.7l70.8 70.8C140.2 155.7 200.7 107.7 272 107.7z"/></svg>